<?xml version="1.0" encoding="UTF-8" standalone="no"?>
<svg
   version="1.1"
   width="1271"
   height="1237"
   id="svg30"
   sodipodi:docname="F71ED5BE-9994-4CF4-AB8A-4466092721CE.svg"
   inkscape:version="1.4.2 (ebf0e940, 2025-05-08)"
   xmlns:inkscape="http://www.inkscape.org/namespaces/inkscape"
   xmlns:sodipodi="http://sodipodi.sourceforge.net/DTD/sodipodi-0.dtd"
   xmlns="http://www.w3.org/2000/svg"
   xmlns:svg="http://www.w3.org/2000/svg">
  <defs
     id="defs30" />
  <sodipodi:namedview
     id="namedview30"
     pagecolor="#ffffff"
     bordercolor="#000000"
     borderopacity="0.25"
     inkscape:showpageshadow="2"
     inkscape:pageopacity="0.0"
     inkscape:pagecheckerboard="0"
     inkscape:deskcolor="#d1d1d1"
     inkscape:zoom="0.29916017"
     inkscape:cx="665.1955"
     inkscape:cy="488.03288"
     inkscape:window-width="1512"
     inkscape:window-height="859"
     inkscape:window-x="0"
     inkscape:window-y="33"
     inkscape:window-maximized="1"
     inkscape:current-layer="svg30" />
  <g
     id="g30"
     transform="translate(36.7696)">
    <path
       d="m 0,0 c 14.119169,11.542287 16.608141,27.327523 19.179687,44.367187 0.600478,3.861464 1.208842,7.721678 1.816407,11.582032 0.150654,0.964848 0.301308,1.929696 0.456527,2.923782 1.531481,9.763425 3.252634,19.490671 5.037064,29.210739 4.556113,24.82354 4.556113,24.82354 4.315002,34.28345 0.629788,0.0804 1.259576,0.16081 1.908448,0.24365 2.885428,0.37158 5.769715,0.7514 8.654052,1.13135 0.990645,0.12633 1.98129,0.25265 3.001954,0.38281 5.330231,0.70834 10.265175,1.74111 15.435546,3.24219 3.861871,0.72833 7.742725,1.32875 11.625,1.9375 12.851313,2.07016 12.851313,2.07016 18.8125,3.5625 4.283799,1.01727 8.551489,1.87609 12.898443,2.57422 1.14412,0.18433 2.28824,0.36867 3.46704,0.55859 5.06395,0.80037 10.12918,1.59176 15.19702,2.36719 0,0.66 0,1.32 0,2 1.91933,-0.0676 1.91933,-0.0676 3.87744,-0.13648 5.26362,0.005 9.99837,1.04804 15.08349,2.32007 8.18506,1.95196 16.38145,3.74084 24.64063,5.35156 1.06628,0.20822 2.13255,0.41643 3.23114,0.63095 3.2636,0.63474 6.5279,1.26576 9.7923,1.8964 3.27289,0.63555 6.54558,1.2721 9.81825,1.9088 2.12948,0.41412 4.25906,0.82767 6.38876,1.24063 7.6086,1.47707 15.21016,2.98717 22.80474,4.53479 4.17237,0.84381 8.33549,1.58484 12.55075,2.19078 10.48419,1.927 19.45793,9.18158 25.70703,17.62109 4.69768,7.50944 6.46034,14.40682 6.35547,23.19141 -0.004,0.78552 -0.008,1.57104 -0.0117,2.38037 -0.0902,6.10139 -0.77394,11.93381 -2.23828,17.86963 -0.66,0 -1.32,0 -2,0 -0.0561,0.86045 -0.0561,0.86045 -0.11328,1.73828 -1.20117,15.52091 -4.29673,30.79056 -7.41016,46.01953 -0.34681,1.70154 -0.6936,3.40308 -1.04016,5.10468 -0.32172,1.57579 -0.64475,3.15131 -0.96851,4.72668 -3.53289,17.22183 -6.61554,34.49452 -9.52014,51.83221 -2.12223,12.63412 -4.43484,25.17489 -7.22659,37.67922 -1.65637,7.45723 -2.971,14.90438 -4.09616,22.4619 -0.40657,2.61652 -0.81565,5.23245 -1.23047,7.84765 -0.1072,0.67613 -0.2144,1.35225 -0.32485,2.04886 -1.44933,9.03775 -3.10294,18.03893 -4.75718,27.04099 -0.15048,0.82614 -0.30096,1.65227 -0.456,2.50345 -0.43129,2.36418 -0.8676,4.72737 -1.30572,7.0903 -0.19038,1.04498 -0.19038,1.04498 -0.3846,2.11107 -0.5917,3.15471 -1.2869,6.21326 -2.17766,9.29835 -1.06164,3.75549 -1.7503,7.50434 -2.35571,11.3523 -0.24625,1.51481 -0.49251,3.02962 -0.73877,4.54443 -0.12554,0.7822 -0.25108,1.5644 -0.38043,2.3703 -1.84831,11.49712 -3.74042,22.97145 -6.11029,34.37433 -1.46771,7.06467 -2.75303,14.15807 -4.00928,21.26318 -0.72556,4.06876 -1.49194,8.1108 -2.41748,12.13916 -1.23601,5.43496 -2.02243,10.92403 -2.83203,16.43555 -0.54798,3.61489 -1.15904,7.07133 -2.11328,10.60742 -1.02467,3.88448 -1.47236,7.76553 -1.9336,11.75391 -1.06197,9.15405 -2.83349,18.12883 -4.66015,27.15625 -0.4778,2.37762 -0.95388,4.75555 -1.42675,7.13415 -0.29074,1.46099 -0.58434,2.92141 -0.8815,4.38111 -0.68594,3.4319 -1.25806,6.83785 -1.66685,10.31457 -0.4624,3.67017 -0.4624,3.67017 -1.41943,6.48657 -1.51386,4.62094 -2.05049,9.31574 -2.73047,14.1211 -1.74823,11.83143 -3.76608,23.60338 -5.875,35.375 -0.14771,0.83176 -0.29542,1.66351 -0.4476,2.52047 -1.58263,8.89962 -3.24817,17.73844 -5.39957,26.5225 -0.70768,3.1702 -1.05698,6.29824 -1.35645,9.52807 -0.23183,2.09787 -0.6022,4.10264 -1.03857,6.16724 -1.72646,8.45633 -3.21951,16.9571 -4.75781,25.44922 -0.35503,1.95646 -0.7101,3.91293 -1.06519,5.86938 -2.94756,16.24981 -5.87555,32.50316 -8.79761,48.75757 -2.00237,11.13837 -4.00749,22.27624 -6.01906,33.41295 -0.36027,1.99492 -0.72034,3.98988 -1.08036,5.98485 -1.19325,6.61142 -2.38873,13.22243 -3.58856,19.83267 -1.96598,10.84873 -3.92288,21.69587 -5.70704,32.57617 -0.26195,1.57425 -0.52407,3.14847 -0.78637,4.72266 -0.45065,2.70755 -0.8787,5.41515 -1.29248,8.1289 -2.15839,13.02365 -6.63437,25.56172 -17.10083,34.21485 -3.86999,2.36335 -7.81307,4.26909 -12,6 -0.79535,0.37511 -1.59071,0.75023 -2.41016,1.13672 -11.896239,3.96541 -28.493701,0.18757 -40.249999,-3.1875 -3.115074,-0.88534 -6.005055,-1.38238 -9.214844,-1.76172 -6.521966,-0.8819 -12.929347,-2.11298 -19.375,-3.4375 -10.078189,-2.06262 -20.178934,-3.92343 -30.3124995,-5.6875 -12.3785027,-2.15769 -24.7352165,-4.40427 -37.0825195,-6.73535 -1.322749,-0.2497 -2.645503,-0.49938 -3.968262,-0.74903 -0.996223,-0.18807 -0.996223,-0.18807 -2.012573,-0.37994 -7.941494,-1.49708 -15.888398,-2.96482 -23.835937,-4.42941 -1.615855,-0.2978 -3.231662,-0.59587 -4.847413,-0.89423 -22.263681,-4.13334 -22.263681,-4.13334 -44.624393,-7.69095 -4.3275,-0.65705 -8.55289,-1.51756 -12.80786,-2.54687 -7.26021,-1.68875 -14.56694,-3.00613 -21.90962,-4.26976 -2.37882,-0.40941 -4.75683,-0.82329 -7.1347,-1.23818 -5.04989,-0.88023 -10.10077,-1.75467 -15.15172,-2.62878 -5.86018,-1.01493 -11.71991,-2.03235 -17.57895,-3.05382 -2.31573,-0.40273 -4.63202,-0.80209 -6.94838,-1.20119 -7.85954,-1.36316 -15.66246,-2.85487 -23.45044,-4.58735 -5.36998,-1.14484 -10.78894,-1.98035 -16.20973,-2.84514 -16.0266,-2.61181 -31.99501,-5.5267 -47.96643,-8.45458 -14.36987,-2.63315 -28.75218,-5.16805 -43.15786,-7.59804 -4.23785,-0.71553 -8.47514,-1.43431 -12.71243,-2.15316 -3.64921,-0.61874 -7.29885,-1.23477 -10.94942,-1.84549 -3.58683,-0.60021 -7.17242,-1.20748 -10.75727,-1.81941 -1.9959,-0.33883 -3.99302,-0.6704 -5.99016,-1.00176 -15.559,-2.66961 -27.88031,-7.78787 -37.70471,-20.73694 -2.61129,-3.91289 -4.20078,-7.77116 -5.76172,-12.20312 -2.42275,-6.10654 -5.69765,-8.43839 -11.08594,-11.95313 -12.02286,-8.8235 -15.49013,-24.12077 -17.78906,-38.04687 -0.93044,-6.18568 -1.80442,-12.37906 -2.64258,-18.57788 -0.16178,-1.18602 -0.32356,-2.37204 -0.49023,-3.594 -0.14325,-1.07346 -0.2865,-2.14693 -0.43409,-3.25293 -0.30027,-2.55343 -0.30027,-2.55343 -1.4331,-4.57519 -0.37532,-2.22197 -0.7058,-4.45156 -1.01563,-6.6836 -0.19859,-1.40384 -0.39741,-2.80764 -0.59643,-4.21142 -0.10388,-0.74075 -0.20776,-1.4815 -0.31479,-2.24469 -1.82945,-13.00842 -3.92093,-25.91661 -6.40152,-38.81854 -1.36902,-7.18747 -2.46377,-14.3348 -3.2146,-21.61207 -0.41467,-3.52774 -0.41467,-3.52774 -1.35938,-7.32031 -0.98523,-4.26831 -1.64149,-8.56288 -2.24609,-12.89844 -0.14974,-1.06705 -0.14974,-1.06705 -0.30251,-2.15567 -0.41334,-2.96305 -0.82287,-5.92654 -1.22093,-8.89169 -1.22909,-9.10294 -2.90379,-17.74007 -5.39599,-26.59131 -1.46325,-5.60771 -2.26867,-11.27456 -3.05713,-17.00976 -0.88321,-6.25909 -1.75663,-12.39772 -3.39746,-18.50464 -1.02912,-4.43478 -1.47776,-8.98226 -2.04004,-13.49536 -0.24745,-1.97835 -0.49855,-3.95625 -0.75391,-5.9336 -0.10772,-0.86552 -0.21543,-1.73105 -0.32641,-2.6228 -0.15836,-1.99802 -0.15836,-1.99802 -1.35718,-3.0061 -0.33321,-2.0144 -0.61473,-4.03739 -0.875,-6.0625 -0.79587,-5.81684 -1.76716,-11.56433 -2.87622,-17.3313 -1.16872,-6.10768 -2.2488,-12.22921 -3.31128,-18.3562 -0.17241,-0.99331 -0.34483,-1.98661 -0.52246,-3.01001 -0.87062,-5.03465 -1.72098,-10.07166 -2.54004,-15.11499 -0.50916,-3.12639 -1.11254,-6.17667 -1.875,-9.25 -1.07713,-4.64192 -1.59417,-9.33333 -2.125,-14.0625 -0.0877,-0.77296 -0.17532,-1.54591 -0.26563,-2.34229 -0.44714,-4.17848 -0.70337,-8.26061 -0.60937,-12.47021 -0.66,0 -1.32,0 -2,0 -0.16605,-1.13317 -0.3321,-2.26634 -0.50318,-3.43384 -0.62792,-4.27793 -1.261,-8.55508 -1.8955,-12.83203 -0.27188,-1.83736 -0.54243,-3.67493 -0.81153,-5.5127 -1.46941,-10.0287 -3.05852,-19.98034 -5.11767,-29.90674 -0.99688,-4.91629 -1.78106,-9.85807 -2.54712,-14.81469 -0.34351,-2.18103 -0.68727,-4.36202 -1.03125,-6.54297 -0.26684,-1.70036 -0.26684,-1.70036 -0.53906,-3.43506 -2.80546,-17.81316 -5.71972,-35.60892 -8.67969,-53.39697 -0.1222,-0.73579 -0.2444,-1.47157 -0.3703,-2.22965 -1.44767,-8.7103 -2.92884,-17.41308 -4.50193,-26.10174 -0.76585,-4.27444 -1.39324,-8.54859 -1.94027,-12.85611 -0.81066,-6.34459 -1.82191,-12.63934 -2.89063,-18.94532 -2.05995,-12.25809 -4.03159,-24.52913 -5.98437,-36.80468 -2.01849,-12.67158 -4.04048,-25.34236 -6.1211,-38.00391 -0.15315,-0.93246 -0.30631,-1.86493 -0.46411,-2.82565 -0.30247,-1.84132 -0.60494,-3.68264 -0.90741,-5.52396 -0.14681,-0.89396 -0.29362,-1.78793 -0.44488,-2.70898 -0.14617,-0.88994 -0.29234,-1.77988 -0.44293,-2.69678 -1.9688,-12.01042 -3.80426,-24.02701 -5.4516,-36.08643 -0.98712,-7.12194 -2.23377,-14.15988 -3.60547,-21.21679 -2.94847,-15.45135 -3.08818,-29.3129 5.25,-43.125003 7.76368,-11.394803 18.29619,-20.598238 32.01172,-23.675781 1.91925,-0.321924 3.84374,-0.615248 5.77343,-0.867187 2.69478,-0.383097 5.30653,-0.874713 7.96875,-1.429688 5.02032,-1.022561 10.03587,-1.677043 15.1211,-2.277344 10.17707,-1.26239 20.26873,-2.900976 30.375,-4.625 14.47701,-2.469372 28.97494,-4.66824 43.52936,-6.631195 5.9273,-0.831316 11.79629,-1.760617 17.67376,-2.898101 8.39191,-1.599298 16.81226,-2.970369 25.25,-4.302735 1.57245,-0.250151 3.14485,-0.500539 4.71723,-0.751144 4.11539,-0.655455 8.23115,-1.308536 12.34704,-1.960831 7.29152,-1.155708 14.58258,-2.314345 21.87323,-3.475525 0.79678,-0.126862 1.59355,-0.253724 2.41448,-0.38443 20.56673,-3.277641 41.11712,-6.666408 61.63885,-10.2155 6.58061,-1.11617 12.84303,-1.609033 19.5248,-1.419601 5.37071,-0.122062 10.64224,-0.788812 15.96875,-1.460938 1.01022,-0.126328 2.02044,-0.252656 3.06128,-0.382812 5.57337,-0.730156 11.0666,-1.645901 16.56933,-2.791504 2.69573,-0.556822 5.40182,-1.014001 8.11939,-1.450684 3.67765,-0.599011 7.34049,-1.236866 11,-1.937499 5.13175,-0.943915 10.2824,-1.669048 15.44922,-2.386719 11.85926,-1.672231 23.67241,-3.5986498 35.48828,-5.5507815 4.31628,-0.7104125 8.63275,-1.4196466 12.94922,-2.1289063 1.05151,-0.1730113 2.10303,-0.3460226 3.18641,-0.5242767 6.18782,-1.0168153 12.37776,-2.0184443 18.5714,-2.99916075 0.70995,-0.11277283 1.4199,-0.22554565 2.151366,-0.34173584 3.166827,-0.502871 6.334078,-1.00255809 9.502441,-1.4956665 5.629142,-0.89331851 11.196015,-1.91535971 16.764161,-3.13525391 C -20.939353,-15.57411 -20.939353,-15.57411 0,0 Z"
       fill="#793ced"
       transform="translate(932.19531,194.63281)"
       id="path2" />
    <path
       d="M 0,0 C 0,0.66 0,1.32 0,2 0.66,2.185625 1.32,2.37125 2,2.5625 11.351607,7.0434783 17.996623,16.040323 22.753906,25 c 3.401565,6.319605 6.965497,12.537721 10.558594,18.75 0.657905,1.138726 1.315811,2.277451 1.993652,3.450684 3.568449,6.164321 7.157427,12.314741 10.818848,18.424316 0.351592,0.594661 0.703184,1.189321 1.06543,1.802002 1.387768,2.327051 2.791772,4.550236 4.461914,6.686279 3.507964,4.538004 3.593674,8.530171 3.46875,14.140625 -0.0087,0.744796 -0.01748,1.489593 -0.02649,2.256958 C 55.071869,92.340707 55.037122,94.170393 55,96 c -0.636379,0.09943 -1.272758,0.198858 -1.928421,0.3013 -8.128639,1.270665 -16.256629,2.545446 -24.384079,3.8237 -0.983157,0.15463 -0.983157,0.15463 -1.986176,0.31238 -16.7200679,2.6309 -33.4248448,5.32109 -50.096344,8.24597 -16.868511,2.93948 -33.795445,5.52809 -50.714355,8.15845 -10.808362,1.68555 -21.587151,3.4178 -32.327395,5.49438 -6.3284,1.17896 -12.69557,2.10063 -19.06323,3.03882 -2.89476,0.43074 -5.7892,0.86364 -8.68359,1.29688 -0.73041,0.10909 -1.46082,0.21819 -2.21337,0.33059 -5.00842,0.75064 -10.01192,1.52887 -15.0132,2.32565 -0.68044,0.10828 -1.36088,0.21655 -2.06195,0.3281 -1.01323,0.16123 -1.01323,0.16123 -2.04693,0.32571 -12.10977,1.92672 -24.21736,3.71742 -36.40113,5.11817 -0.91064,0.10618 -1.82128,0.21237 -2.75952,0.32177 -1.18698,0.13294 -1.18698,0.13294 -2.39795,0.26856 -2.00004,0.22369 -2.00004,0.22369 -3.92236,1.30957 -1.74893,0.21715 -3.49918,0.4237 -5.25,0.625 -12.8087,2.09122 -24.10372,9.00899 -31.96875,19.26953 -9.50335,13.68689 -11.55368,27.18394 -8.86328,43.62109 0.41264,2.24676 0.83628,4.49151 1.26953,6.73438 0.46605,2.54748 0.92813,5.09569 1.38672,7.64453 0.17818,0.98566 0.17818,0.98566 0.35995,1.99123 1.36896,7.65728 2.46445,15.35231 3.56583,23.05174 1.66403,11.558 3.45889,23.08252 5.41187,34.59595 2.48294,14.68479 4.80805,29.3948 7.14599,44.10327 0.32563,2.04559 0.65139,4.09117 0.9773,6.13672 0.16027,1.00682 0.32054,2.01363 0.48567,3.05096 1.16141,7.26576 2.37506,14.52193 3.60026,21.77716 1.29002,7.6465 2.42991,15.28348 3.4087,22.97608 0.75792,5.51643 1.77702,10.98234 2.78549,16.45761 3.11213,16.94972 5.72525,33.96579 8.23623,51.01382 1.36916,9.24059 2.86439,18.39623 4.76758,27.54346 1.10785,5.54402 1.92422,11.12723 2.74341,16.71997 0.99258,6.73282 2.05025,13.41606 3.42651,20.0813 1.02728,5.23947 1.8197,10.51803 2.63599,15.7937 0.18176,1.13631 0.36352,2.27262 0.55078,3.44336 0.85557,5.51613 1.56663,10.7856 1.32422,16.36914 0.66,0 1.32,0 2,0 0.0804,0.6799 0.16081,1.3598 0.24365,2.0603 0.37243,3.12631 0.75184,6.25174 1.13135,9.3772 0.18949,1.60392 0.18949,1.60392 0.38281,3.24023 0.66382,5.42669 1.47533,10.71287 2.73291,16.03223 0.79723,3.58486 1.35856,7.20351 1.94678,10.82764 1.02049,6.28152 2.09722,12.55361 3.16699,18.8269 0.26456,1.55389 0.52823,3.10793 0.79102,4.66211 1.68615,10.15841 1.68615,10.15841 3.75683,20.24292 0.6707,2.95169 1.15783,5.72399 1.41016,8.73047 0.0592,2.79513 0.0592,2.79513 1.4375,5 0.34653,1.96121 0.63644,3.93249 0.90234,5.90625 0.16823,1.21945 0.33645,2.43891 0.50977,3.69531 0.17338,1.28649 0.34676,2.57297 0.52539,3.89844 1.4482,10.78302 1.4482,10.78302 3.60474,21.43848 0.98257,4.42498 1.52743,8.9396 2.13745,13.42871 0.74029,5.01382 1.88388,9.7838 3.25781,14.66406 2.32527,8.34892 3.53609,16.76686 4.6875,25.34375 0.40391,2.94601 0.81328,5.89123 1.22656,8.83594 0.0977,0.69969 0.19539,1.39938 0.29604,2.12027 0.6019,4.21243 1.38818,8.31878 2.37877,12.45346 1.0637,4.9753 1.61161,10.05061 2.28613,15.09033 1.49477,10.85371 3.3275,21.59836 5.39502,32.3562 1.55139,8.17585 2.79747,16.35757 3.80444,24.61792 0.47049,3.77637 1.00108,7.42842 1.98413,11.10791 1.27303,4.78657 1.78659,9.63403 2.37891,14.54297 2.41991,18.7265 5.81637,39.32024 21.5625,51.625 1.34341,0.97336 2.69372,1.93765 4.0625,2.875 -4.42285,1.47428 -7.6588,0.52758 -12,-1 -8.75466,-4.4953 -15.80916,-10.51161 -21.49902,-18.51001 -4.00461,-5.35174 -8.71312,-9.93262 -13.46582,-14.61499 -0.96167,-0.95537 -1.9228,-1.91127 -2.88344,-2.86768 -2.51321,-2.50001 -5.03194,-4.99437 -7.55242,-7.48706 -4.02992,-3.98655 -8.05303,-7.97993 -12.07278,-11.97674 -1.3905,-1.38043 -2.78462,-2.75719 -4.17885,-4.13385 -0.86102,-0.85449 -1.72203,-1.70898 -2.60914,-2.58936 -0.74802,-0.73976 -1.49603,-1.47952 -2.26671,-2.2417 -1.99807,-2.08439 -3.89301,-4.19891 -5.77874,-6.38255 -3.67279,-4.22731 -7.55661,-8.20058 -11.52096,-12.15334 -0.74895,-0.7507 -1.4979,-1.5014 -2.26955,-2.27485 -2.45331,-2.45768 -4.91022,-4.91173 -7.36741,-7.36553 -1.71976,-1.72043 -3.43937,-3.441 -5.15883,-5.16172 -3.59509,-3.59657 -7.19198,-7.19133 -10.79015,-10.78481 -4.59745,-4.59175 -9.19039,-9.18798 -13.782,-13.78558 -3.54735,-3.55097 -7.09708,-7.09954 -10.64754,-10.6474 -1.6939,-1.69324 -3.38707,-3.38722 -5.07947,-5.08196 -2.37088,-2.37343 -4.74497,-4.74361 -7.11989,-7.11299 -0.6896,-0.69162 -1.3792,-1.38324 -2.0897,-2.09582 -3.91707,-3.90027 -7.93699,-7.6071 -12.15319,-11.18304 -2.51848,-2.27555 -4.54369,-4.94418 -6.71439,-7.54902 -1.14014,-1.02216 -2.29944,-2.02314 -3.47136,-3.00871 -5.41937,-4.691 -10.43467,-9.77301 -15.48689,-14.85189 -1.07982,-1.08174 -2.15987,-2.16325 -3.24013,-3.24455 -2.31055,-2.31369 -4.61954,-4.62892 -6.92732,-6.94538 -3.64902,-3.66262 -7.30193,-7.32136 -10.9554,-10.97955 -7.74678,-7.75783 -15.4893,-15.51992 -23.2314,-23.28242 -8.37687,-8.39891 -16.75449,-16.79708 -25.13697,-25.19039 -3.63259,-3.63757 -7.26273,-7.27757 -10.89101,-10.91944 -2.25257,-2.26001 -4.50719,-4.51796 -6.76239,-6.77535 -1.04618,-1.04806 -2.09149,-2.09698 -3.13588,-3.14682 -1.42379,-1.43099 -2.85096,-2.85862 -4.27829,-4.28607 -0.79803,-0.80024 -1.59605,-1.60048 -2.41825,-2.42498 -2.10887,-2.09423 -2.10887,-2.09423 -5.06471,-3.94445 0,-0.66 0,-1.32 0,-2 -0.99,-0.33 -1.98,-0.66 -3,-1 -1.25282,-1.45063 -2.50055,-2.90666 -3.69922,-4.40234 -4.04283,-4.96552 -9.02645,-9.07919 -13.80078,-13.31641 -2.58176,-2.35585 -5.03472,-4.80364 -7.5,-7.28125 -0.98864,-0.98922 -1.97759,-1.97814 -2.9668,-2.9668 C -468,562 -468,562 -470.23077,559.76587 c -2.88214,-2.87864 -5.77429,-5.74699 -8.66957,-8.61238 -1.19367,-1.18194 -2.38732,-2.36391 -3.58094,-3.5459 -0.63261,-0.62641 -1.26523,-1.25282 -1.91701,-1.89822 -14.60315,-14.4613 -29.18314,-28.94576 -43.75022,-43.44338 -8.41616,-8.37496 -16.83968,-16.74225 -25.28093,-25.09192 -7.37766,-7.29765 -14.74091,-14.60949 -22.08756,-21.93836 -3.88226,-3.87188 -7.7711,-7.73655 -11.67736,-11.58423 -3.68088,-3.62611 -7.34203,-7.27107 -10.98964,-10.93062 -1.33289,-1.33071 -2.67252,-2.65471 -4.01971,-3.97093 -11.83018,-11.57157 -20.69645,-23.64627 -21.10879,-40.81243 0.13325,-11.7123 4.13019,-21.75963 11.3125,-30.9375 1.49801,-1.44143 3.03749,-2.84075 4.61133,-4.19897 5.38282,-4.74943 10.44149,-9.75954 15.48242,-14.86744 1.39507,-1.40447 2.79014,-2.80894 4.18555,-4.21306 3.3962,-3.41897 6.78663,-6.84365 10.1748,-10.27058 1.92069,-1.94222 3.84397,-3.8818 5.77014,-5.81859 1.80496,-1.81532 3.60579,-3.63476 5.4021,-5.45865 0.80845,-0.81182 1.61689,-1.62364 2.44983,-2.46006 0.71152,-0.71898 1.42305,-1.43796 2.15613,-2.17873 C -560,306 -560,306 -558,306 c 0.33,-0.99 0.66,-1.98 1,-3 1.8125,-1.75391 1.8125,-1.75391 4,-3.5625 2.94959,-2.3596 2.94959,-2.3596 5,-5.4375 0.66,0 1.32,0 2,0 0.39112,-0.87868 0.39112,-0.87868 0.79013,-1.7751 1.28777,-2.36816 2.66217,-3.92353 4.56773,-5.82327 0.6939,-0.69665 1.3878,-1.3933 2.10273,-2.11106 0.76106,-0.75387 1.52213,-1.50775 2.30626,-2.28447 1.20271,-1.20314 1.20271,-1.20314 2.42971,-2.4306 2.65503,-2.65363 5.31708,-5.3001 7.97922,-7.94659 1.84648,-1.84275 3.69252,-3.68594 5.53813,-5.52956 4.3674,-4.36118 8.73986,-8.71724 13.11417,-13.07147 4.95968,-4.9374 9.91375,-9.8804 14.86732,-14.82393 8.47477,-8.45739 16.95371,-16.91058 25.43743,-25.35899 4.98199,-4.96149 9.95902,-9.92751 14.91328,-14.91672 2.06492,-2.07849 4.13267,-4.15415 6.20047,-6.22975 1.08294,-1.08797 2.16497,-2.17684 3.2461,-3.26661 5.66178,-5.70571 11.34011,-11.26625 17.50732,-16.43188 1.67862,-1.65463 3.34358,-3.32315 5,-5 0.94414,-0.94946 1.88862,-1.89857 2.83341,-2.84738 1.05361,-1.06004 2.10715,-2.12015 3.16064,-3.18031 1.21475,-1.22208 2.42951,-2.44414 3.64429,-3.66619 0.96609,-0.97191 0.96609,-0.97191 1.95171,-1.96346 14.84651,-14.93503 29.70738,-29.8557 44.57648,-44.76825 8.59178,-8.61757 17.1788,-17.239778 25.75486,-25.872994 7.49266,-7.542579 14.99415,-15.07626 22.50624,-22.599491 3.97116,-3.977654 7.93784,-7.959544 11.89395,-11.952158 3.72379,-3.757863 7.45929,-7.503667 11.20389,-11.24078 1.36724,-1.368607 2.73025,-2.741463 4.0885,-4.118986 C -277.80688,24.068266 -268.55301,16.37866 -253,15 c 0.72445,-0.0825 1.44891,-0.165 2.19531,-0.25 4.99881,-0.30411 9.81434,0.685917 14.67969,1.75 1.91426,0.417656 1.91426,0.417656 3.86719,0.84375 12.05709,4.008573 21.78636,15.405294 30.61401,24.072021 1.55989,1.520035 3.13402,3.02559 4.72168,4.516602 13.96993,13.124918 13.96993,13.124918 14.93628,19.046631 0.005,3.194953 -0.22196,5.933472 -1.01416,9.020996 6.64991,-0.54285 11.75132,-2.169345 17.49219,-5.59375 1.23555,-0.726959 2.47173,-1.452839 3.70849,-2.177734 0.62864,-0.370848 1.25728,-0.741695 1.90497,-1.12378 3.00865,-1.75457 6.05905,-3.430818 9.1131,-5.104736 0.59904,-0.329476 1.19808,-0.658953 1.81528,-0.998413 2.42868,-1.335499 4.85875,-2.668452 7.28872,-4.001587 8.94534,-4.910226 17.83142,-9.912733 26.67725,-15 15.552938,-8.936701 31.135923,-17.793743 46.87915,-26.391357 5.926853,-3.243925 11.774248,-6.5681991 17.519288,-10.1252446 C -34.092261,-6.6968259 -17.725436,-7.5427387 0,0 Z"
       fill="#fdc902"
       transform="translate(632,121)"
       id="path3" />
    <path
       d="m 0,0 c 14.118631,11.541847 16.609177,27.327727 19.179687,44.367187 0.600443,3.866677 1.20865,7.732124 1.816407,11.597657 0.150654,0.965674 0.301308,1.931348 0.456527,2.926285 1.300221,8.287534 2.766658,16.539384 4.276627,24.790817 2.288144,12.520353 4.17018,24.980394 5.075439,37.685244 -33.081545,-6.11747 -33.081545,-6.11747 -47.097656,-8.77735 -5.854721,-1.10841 -11.706992,-2.20888 -17.589843,-3.16015 -5.848976,-0.95858 -11.674678,-2.03327 -17.5,-3.125 -0.946414,-0.17459 -1.892828,-0.34918 -2.86792,-0.52906 -0.882767,-0.16701 -1.765533,-0.33402 -2.675049,-0.5061 -0.798172,-0.14961 -1.596343,-0.29922 -2.418701,-0.45337 -1.85083,-0.44897 -1.85083,-0.44897 -2.85083,-1.44897 -1.734005,-0.3494 -3.47886,-0.64524 -5.226563,-0.91797 -1.090869,-0.17451 -2.181738,-0.34901 -3.305664,-0.52881 -1.144365,-0.18256 -2.288731,-0.36513 -3.467773,-0.55322 -16.009903,-2.700323 -31.884428,-5.72479 -47.686038,-9.456545 -7.38943,-1.735481 -14.77939,-3.35855 -22.29443,-4.449708 -7.29721,-1.105134 -14.52841,-2.483812 -21.76953,-3.90625 -1.35519,-0.264173 -2.71042,-0.528167 -4.06568,-0.791992 -9.61278,-1.874945 -19.21828,-3.786864 -28.81421,-5.746338 -5.85916,-1.186749 -11.72705,-2.235495 -17.63012,-3.180908 -2.68311,-0.45854 -5.33146,-1.010512 -7.98999,-1.593262 -12.56977,-2.305372 -24.71658,-1.767972 -35.66016,5.371094 -7.45176,5.298074 -12.90234,11.147637 -16.08984,19.753906 -0.48985,0.862383 -0.97969,1.724766 -1.48438,2.613282 -1.92014,4.290631 -2.43807,8.314821 -3.01562,12.949221 -0.94747,6.94429 -2.14361,13.69526 -3.81641,20.50781 -0.91139,3.90598 -1.53069,7.83671 -2.15625,11.79687 -0.57198,3.39802 -1.26178,6.75955 -1.96484,10.13282 -1.41185,6.88896 -2.47144,13.79911 -3.38452,20.77148 -0.57639,4.14625 -1.36132,8.02368 -2.63892,12.01367 -1.89445,6.01294 -2.76823,12.11201 -3.66406,18.33985 -0.16887,1.12793 -0.33774,2.25586 -0.51172,3.41797 -0.69794,4.69872 -1.3686,9.39523 -1.92188,14.11328 -0.42111,3.19 -1.24502,5.38798 -2.4414,8.34375 -1.47392,5.43864 -2.10714,10.92336 -2.59693,16.51953 -0.64918,7.28143 -1.65887,14.0857 -3.71557,21.10547 -4.11567,14.10112 -5.66713,28.85823 -7.6875,43.375 -0.66,0 -1.32,0 -2,0 -0.0258,0.66 -0.0516,1.32 -0.0781,2 -0.97535,17.02442 -4.58317,33.8303 -8.13135,50.47192 -1.52814,7.17967 -2.87645,14.37174 -4.11474,21.6062 -0.67157,3.89745 -1.38351,7.78493 -2.11328,11.67188 -0.12061,0.64388 -0.24122,1.28777 -0.36548,1.95117 -0.71628,3.80654 -1.45364,7.60839 -2.20483,11.4082 -1.85783,9.46414 -3.50169,18.84931 -4.5,28.44531 -0.5174,3.62178 -1.41667,6.95195 -2.49219,10.44532 -1.76198,6.16693 -2.60903,12.26125 -3.33985,18.63281 -0.494,3.68695 -1.27098,7.28572 -2.07031,10.91797 -1.90993,8.72217 -3.29599,17.51042 -4.69531,26.32617 -1.15285,7.11168 -2.54198,14.09154 -4.21631,21.0979 -0.99903,4.4561 -1.63823,8.9386 -2.24072,13.46265 -1.17611,8.81075 -1.17611,8.81075 -2.44531,12.46093 -1.49386,4.66977 -1.79481,9.42678 -2.30469,14.28907 -1.07719,9.44826 -2.91953,18.31214 -5.49219,27.44922 -3.08513,10.9959 -4.4703,22.28721 -5.93018,33.58593 -1.26143,9.39551 -3.15438,18.63781 -5.06982,27.91797 -1.0233,4.96114 -1.95969,9.93016 -2.82031,14.92188 -0.11529,0.66677 -0.23058,1.33353 -0.34937,2.02051 -0.11287,0.65323 -0.22574,1.30646 -0.34204,1.97949 -0.72422,4.17149 -1.47486,8.33699 -2.24609,12.5 -0.22817,1.23879 -0.45633,2.47758 -0.69141,3.7539 -0.49594,2.44854 -1.06642,4.88319 -1.71094,7.29688 -1.81292,7.08594 -2.5415,14.41727 -3.53515,21.65234 -0.165,1.16274 -0.33,2.32547 -0.5,3.52344 -0.14438,1.04881 -0.28875,2.09763 -0.4375,3.17822 -0.58334,3.14504 -1.55222,6.00187 -2.5625,9.03272 -0.30349,1.80806 -0.55227,3.62614 -0.7461,5.44922 -0.11537,1.01384 -0.23074,2.02769 -0.34961,3.07226 -0.22573,2.09096 -0.44972,4.1821 -0.67187,6.27344 -0.7028,6.14662 -1.86041,11.86611 -3.58814,17.80493 -1.00811,3.75552 -1.10672,7.42016 -1.23803,11.28296 -0.35528,2.72608 -0.92591,4.78622 -1.83594,7.35156 -1.71532,4.90721 -2.51978,9.7488 -3.19531,14.89063 -0.1248,0.90709 -0.2496,1.81419 -0.37818,2.74878 -1.02173,7.69455 -1.65142,15.37256 -1.99682,23.12622 -6.89526,-0.97985 -11.5218,-5.14352 -15.9961,-10.30078 -10.93177,-14.74027 -12.26214,-33.64314 -14.64648,-51.2771 -0.16178,-1.18602 -0.32356,-2.37204 -0.49023,-3.594 -0.14325,-1.07346 -0.2865,-2.14693 -0.43409,-3.25293 -0.30027,-2.55343 -0.30027,-2.55343 -1.4331,-4.57519 -0.37532,-2.22197 -0.7058,-4.45156 -1.01563,-6.6836 -0.19859,-1.40384 -0.39741,-2.80764 -0.59643,-4.21142 -0.10388,-0.74075 -0.20776,-1.4815 -0.31479,-2.24469 -1.82945,-13.00842 -3.92093,-25.91661 -6.40152,-38.81854 -1.36902,-7.18747 -2.46377,-14.3348 -3.2146,-21.61207 -0.41467,-3.52774 -0.41467,-3.52774 -1.35938,-7.32031 -0.98523,-4.26831 -1.64149,-8.56288 -2.24609,-12.89844 -0.14974,-1.06705 -0.14974,-1.06705 -0.30251,-2.15567 -0.41334,-2.96305 -0.82287,-5.92654 -1.22093,-8.89169 -1.22909,-9.10294 -2.90379,-17.74007 -5.39599,-26.59131 -1.46325,-5.60771 -2.26867,-11.27456 -3.05713,-17.00976 -0.88321,-6.25909 -1.75663,-12.39772 -3.39746,-18.50464 -1.02912,-4.43478 -1.47776,-8.98226 -2.04004,-13.49536 -0.24745,-1.97835 -0.49855,-3.95625 -0.75391,-5.9336 -0.10772,-0.86552 -0.21543,-1.73105 -0.32641,-2.6228 -0.15836,-1.99802 -0.15836,-1.99802 -1.35718,-3.0061 -0.33321,-2.0144 -0.61473,-4.03739 -0.875,-6.0625 -0.79587,-5.81684 -1.76716,-11.56433 -2.87622,-17.3313 -1.16872,-6.10768 -2.2488,-12.22921 -3.31128,-18.3562 -0.17241,-0.99331 -0.34483,-1.98661 -0.52246,-3.01001 -0.87062,-5.03465 -1.72098,-10.07166 -2.54004,-15.11499 -0.50916,-3.12639 -1.11254,-6.17667 -1.875,-9.25 -1.07713,-4.64192 -1.59417,-9.33333 -2.125,-14.0625 -0.0877,-0.77296 -0.17532,-1.54591 -0.26563,-2.34229 -0.44714,-4.17848 -0.70337,-8.26061 -0.60937,-12.47021 -0.66,0 -1.32,0 -2,0 -0.16605,-1.13317 -0.3321,-2.26634 -0.50318,-3.43384 -0.62792,-4.27793 -1.261,-8.55508 -1.8955,-12.83203 -0.27188,-1.83736 -0.54243,-3.67493 -0.81153,-5.5127 -1.46941,-10.0287 -3.05852,-19.98034 -5.11767,-29.90674 -0.99688,-4.91629 -1.78106,-9.85807 -2.54712,-14.81469 -0.34351,-2.18103 -0.68727,-4.36202 -1.03125,-6.54297 -0.26684,-1.70036 -0.26684,-1.70036 -0.53906,-3.43506 -2.80546,-17.81316 -5.71972,-35.60892 -8.67969,-53.39697 -0.1222,-0.73579 -0.2444,-1.47157 -0.3703,-2.22965 -1.44767,-8.7103 -2.92884,-17.41308 -4.50193,-26.10174 -0.76585,-4.27444 -1.39324,-8.54859 -1.94027,-12.85611 -0.81066,-6.34459 -1.82191,-12.63934 -2.89063,-18.94532 -2.05995,-12.25809 -4.03159,-24.52913 -5.98437,-36.80468 -2.01849,-12.67158 -4.04048,-25.34236 -6.1211,-38.00391 -0.15315,-0.93246 -0.30631,-1.86493 -0.46411,-2.82565 -0.30247,-1.84132 -0.60494,-3.68264 -0.90741,-5.52396 -0.14681,-0.89396 -0.29362,-1.78793 -0.44488,-2.70898 -0.14617,-0.88994 -0.29234,-1.77988 -0.44293,-2.69678 -1.9688,-12.01042 -3.80426,-24.02701 -5.4516,-36.08643 -0.98712,-7.12194 -2.23377,-14.15988 -3.60547,-21.21679 -2.94847,-15.45135 -3.08818,-29.3129 5.25,-43.125003 7.76368,-11.394803 18.29619,-20.598238 32.01172,-23.675781 1.91925,-0.321924 3.84374,-0.615248 5.77343,-0.867187 2.69478,-0.383097 5.30653,-0.874713 7.96875,-1.429688 5.02032,-1.022561 10.03587,-1.677043 15.1211,-2.277344 10.17707,-1.26239 20.26873,-2.900976 30.375,-4.625 14.47701,-2.469372 28.97494,-4.66824 43.52936,-6.631195 5.9273,-0.831316 11.79629,-1.760617 17.67376,-2.898101 8.39191,-1.599298 16.81226,-2.970369 25.25,-4.302735 1.57245,-0.250151 3.14485,-0.500539 4.71723,-0.751144 4.11539,-0.655455 8.23115,-1.308536 12.34704,-1.960831 7.29152,-1.155708 14.58258,-2.314345 21.87323,-3.475525 0.79678,-0.126862 1.59355,-0.253724 2.41448,-0.38443 20.56673,-3.277641 41.11712,-6.666408 61.63885,-10.2155 6.58061,-1.11617 12.84303,-1.609033 19.5248,-1.419601 5.37071,-0.122062 10.64224,-0.788812 15.96875,-1.460938 1.01022,-0.126328 2.02044,-0.252656 3.06128,-0.382812 5.57337,-0.730156 11.0666,-1.645901 16.56933,-2.791504 2.69573,-0.556822 5.40182,-1.014001 8.11939,-1.450684 3.67765,-0.599011 7.34049,-1.236866 11,-1.937499 5.13175,-0.943915 10.2824,-1.669048 15.44922,-2.386719 11.85926,-1.672231 23.67241,-3.5986498 35.48828,-5.5507815 4.31628,-0.7104125 8.63275,-1.4196466 12.94922,-2.1289063 1.05151,-0.1730113 2.10303,-0.3460226 3.18641,-0.5242767 6.18782,-1.0168153 12.37776,-2.0184443 18.5714,-2.99916075 0.70995,-0.11277283 1.4199,-0.22554565 2.151366,-0.34173584 3.166827,-0.502871 6.334078,-1.00255809 9.502441,-1.4956665 5.629142,-0.89331851 11.196015,-1.91535971 16.764161,-3.13525391 C -20.939353,-15.57411 -20.939353,-15.57411 0,0 Z"
       fill="#20bbfc"
       transform="translate(932.19531,194.63281)"
       id="path4" />
    <path
       d="m 0,0 c 4.9988103,-0.30411013 9.8143328,0.68591749 14.679688,1.75 1.914257,0.4176562 1.914257,0.4176562 3.867187,0.84375 12.057091,4.0085726 21.786358,15.405294 30.614014,24.072021 1.559893,1.520035 3.134023,3.02559 4.721679,4.516602 13.969926,13.124918 13.969926,13.124918 14.93628,19.046631 0.0048,3.194953 -0.22196,5.933472 -1.014161,9.020996 -5.715529,3.26747 -11.438092,6.522471 -17.171875,9.757812 -0.970341,0.548013 -1.940683,1.096026 -2.940429,1.660645 -3.811535,2.087515 -7.695772,4.004419 -11.606446,5.897949 -4.674903,2.398671 -9.218237,5.017168 -13.78125,7.621094 -8.759319,4.997082 -17.5960699,9.829222 -26.4999995,14.5625 -9.5988195,5.10511 -19.1104645,10.34113 -28.5563965,15.72437 -9.765012,5.55409 -19.650057,10.87905 -29.539795,16.20678 -4.560714,2.46403 -9.106528,4.95515 -13.653808,7.44385 -8.991841,4.91574 -18.020922,9.76062 -27.058408,14.59171 -8.68336,4.64261 -17.34301,9.32623 -25.98041,14.0538 -5.828,3.18729 -11.67142,6.34445 -17.52441,9.48559 -13.57519,7.28587 -27.09992,14.65862 -40.56308,22.14931 -3.74881,2.08522 -7.50822,4.15008 -11.27213,6.20787 -9.19707,5.07479 -17.62959,9.88095 -24.85156,17.63672 -0.9075,0.9075 -1.815,1.815 -2.75,2.75 -8.90168,12.85799 -11.63163,28.09562 -8.85156,43.45068 1.75973,7.14216 4.62374,13.48283 8.96484,19.42041 1.97398,2.8691 3.53133,5.85044 5.13672,8.94141 4.70315,9.02538 9.88256,17.7691 15.03515,26.54297 0.56606,0.9647 1.13212,1.9294 1.71534,2.92334 1.20597,2.0481 2.41827,4.09249 3.63574,6.13379 5.20112,8.77595 5.20112,8.77595 6.78564,12.63427 1.53508,3.70225 3.50273,7.03897 5.57813,10.45313 4.50909,7.54097 8.81071,15.18636 13.0625,22.875 6.28558,11.36181 12.64153,22.68156 19.04638,33.97656 1.76074,3.10971 3.51591,6.2225 5.27002,9.33594 0.59539,1.05606 1.19078,2.11213 1.8042,3.2002 1.14438,2.03013 2.28797,4.06071 3.43067,6.09179 0.51288,0.90911 1.02577,1.81822 1.5542,2.75488 0.45141,0.80148 0.90282,1.60295 1.36792,2.42872 1.00862,1.73369 2.10152,3.41803 3.21411,5.08691 0,1.32 0,2.64 0,4 0.66,0 1.32,0 2,0 0.55945,1.02094 1.1189,2.04187 1.69531,3.09375 4.9786,9.04277 10.08224,18.00197 15.30469,26.90625 5.04375,8.60157 9.96689,17.25668 14.78125,25.98828 2.96697,5.37955 6.023631,10.70706 9.083494,16.03418 2.278607,3.96919 4.550717,7.94209 6.822754,11.91504 0.504829,0.88212 1.009658,1.76424 1.529785,2.6731 2.737165,4.78854 5.459545,9.58487 8.161621,14.39331 5.177629,9.21114 10.385566,18.35194 16,27.30468 1.492641,2.47815 2.801273,4.96287 4.058594,7.56641 1.97084,4.07827 4.20711,7.94773 6.5625,11.8125 4.102372,6.75433 8.079003,13.5763 12,20.4375 0.57621,0.99604 1.152421,1.99208 1.746093,3.01831 0.537539,0.94529 1.075078,1.89057 1.628907,2.8645 0.723164,1.26288 0.723164,1.26288 1.460937,2.55127 1.190372,2.49609 1.745844,4.71703 2.164063,7.44092 0.659999,0 1.32,0 2,0 0.402026,0.72888 0.804052,1.45777 1.218261,2.20874 9.190389,16.64627 18.452,33.22859 28.430176,49.42017 1.1560167,2.02804 2.19840636,4.06225 3.2265625,6.15625 2.0562962,4.15456 4.3650474,8.11729 6.75,12.08984 3.5361865,5.94815 6.9736825,11.93891 10.3124995,18 3.850576,6.98313 7.798293,13.90295 11.809571,20.79492 2.464344,4.23597 4.913285,8.4797 7.334961,12.74024 0.771141,1.35665 0.771141,1.35665 1.557861,2.74072 1.022645,1.80007 2.04463,3.60052 3.065918,5.40137 3.443441,6.04261 7.049157,11.94444 10.868408,17.75634 1.555176,2.93566 2.06294,5.40648 2.425781,8.69141 0.990001,0.33 1.98,0.66 3,1 1.42627,1.96191 1.42627,1.96191 2.882813,4.51562 0.527227,0.92168 1.054453,1.84336 1.597656,2.79297 0.814043,1.456 0.814043,1.456 1.644531,2.94141 0.55043,0.9552 1.10086,1.91039 1.667969,2.89453 2.442072,4.31413 4.445152,7.90823 5.207031,12.85547 0.66,0 1.32,0 2,0 1.40942,2.01688 2.686331,4.01293 3.9375,6.125 0.347403,0.56977 0.694805,1.13953 1.052735,1.72656 1.611952,2.67141 3.115805,5.36079 4.509765,8.15235 1.690246,3.37609 3.599568,6.58749 5.5625,9.80859 0.790731,1.31228 1.58108,2.62479 2.371094,3.9375 1.322239,2.19223 2.64711,4.38275 3.977051,6.57031 1.412213,2.32634 2.813973,4.65872 4.214355,6.99219 0.449964,0.73517 0.899927,1.47034 1.363526,2.22778 1.065677,1.7844 2.047327,3.61849 3.011477,5.45972 -0.33,0.66 -0.66,1.32 -1,2 -5.749386,-5.7261 -11.495976,-11.45498 -17.239132,-17.18732 -2.667569,-2.66237 -5.33605,-5.32382 -8.00672,-7.98309 -2.582846,-2.57189 -5.16316,-5.1463 -7.741819,-7.72238 -0.978577,-0.97675 -1.958024,-1.95262 -2.938405,-2.92755 -1.385183,-1.37781 -2.766833,-2.75916 -4.148389,-4.1406 -0.783876,-0.78165 -1.567752,-1.56331 -2.375382,-2.36865 -2.025781,-2.12131 -3.953173,-4.26982 -5.868759,-6.48802 -3.668884,-4.22261 -7.549245,-8.19122 -11.509277,-12.13967 -0.748951,-0.7507 -1.497901,-1.5014 -2.269547,-2.27485 -2.453312,-2.45768 -4.910225,-4.91173 -7.367416,-7.36553 -1.719756,-1.72043 -3.439363,-3.441 -5.158829,-5.16172 -3.595092,-3.59657 -7.191976,-7.19133 -10.790146,-10.78481 -4.59745,-4.59175 -9.1903961,-9.18798 -13.7820042,-13.78558 -3.54734518,-3.55097 -7.0970819,-7.09954 -10.6475325,-10.6474 -1.693905,-1.69324 -3.3870763,-3.38722 -5.0794793,-5.08196 -2.370876,-2.37343 -4.744965,-4.74361 -7.11989,-7.11299 -0.689598,-0.69162 -1.379196,-1.38324 -2.089691,-2.09582 -3.917078,-3.90027 -7.936992,-7.6071 -12.153192,-11.18304 -2.518483,-2.27555 -4.543693,-4.94418 -6.714392,-7.54902 -1.140145,-1.02216 -2.29944,-2.02314 -3.47136,-3.00871 -5.419369,-4.691 -10.434675,-9.77301 -15.486892,-14.85189 -1.079819,-1.08174 -2.159868,-2.16325 -3.240128,-3.24455 -2.31055,-2.31369 -4.619542,-4.62892 -6.927317,-6.94538 -3.649026,-3.66262 -7.301929,-7.32136 -10.955404,-10.97955 -7.746777,-7.75783 -15.489296,-15.51992 -23.231397,-23.28242 -8.37688,-8.39891 -16.75449,-16.79708 -25.13697,-25.19039 -3.63259,-3.63757 -7.26273,-7.27757 -10.89102,-10.91944 -2.25256,-2.26001 -4.50718,-4.51796 -6.76238,-6.77535 -1.04618,-1.04806 -2.0915,-2.09698 -3.13589,-3.14682 -1.42379,-1.43099 -2.85095,-2.85862 -4.27829,-4.28607 -0.79802,-0.80024 -1.59604,-1.60048 -2.41824,-2.42498 -2.10887,-2.09423 -2.10887,-2.09423 -5.06471,-3.94445 0,-0.66 0,-1.32 0,-2 -0.99,-0.33 -1.98,-0.66 -3,-1 -1.25282,-1.45063 -2.50055,-2.90666 -3.69922,-4.40234 -4.04283,-4.96552 -9.02645,-9.07919 -13.80078,-13.31641 -2.58176,-2.35585 -5.03473,-4.80364 -7.5,-7.28125 -0.98864,-0.98922 -1.97759,-1.97814 -2.9668,-2.9668 -24.0332,-24.0332 -24.0332,-24.0332 -26.26397,-26.26733 -2.88214,-2.87864 -5.77429,-5.74699 -8.66958,-8.61238 -1.19367,-1.18194 -2.38731,-2.36391 -3.58093,-3.5459 -0.63262,-0.62641 -1.26523,-1.25282 -1.91702,-1.89822 -14.60314,-14.4613 -29.18314,-28.94576 -43.75021,-43.44338 -8.41616,-8.37496 -16.83968,-16.74225 -25.28094,-25.09192 -7.37765,-7.29765 -14.7409,-14.60949 -22.08755,-21.93836 -3.88226,-3.87188 -7.7711,-7.73655 -11.67736,-11.58423 -3.68088,-3.62611 -7.34203,-7.27107 -10.98964,-10.93062 -1.33289,-1.33071 -2.67252,-2.65471 -4.01972,-3.97093 -11.83017,-11.57157 -20.69645,-23.64627 -21.10878,-40.81243 0.13324,-11.7123 4.13019,-21.75963 11.3125,-30.9375 1.49801,-1.44143 3.03748,-2.84075 4.61133,-4.19897 5.38281,-4.74943 10.44149,-9.75954 15.48242,-14.86744 1.39506,-1.40447 2.79014,-2.80894 4.18555,-4.21306 3.3962,-3.41897 6.78663,-6.84365 10.1748,-10.27058 1.92068,-1.94222 3.84397,-3.8818 5.77014,-5.81859 1.80496,-1.81532 3.60579,-3.63476 5.4021,-5.45865 0.80844,-0.81182 1.61689,-1.62364 2.44983,-2.46006 0.71152,-0.71898 1.42304,-1.43796 2.15613,-2.17873 1.7677,-1.53392 1.7677,-1.53392 3.7677,-1.53392 0.33,-0.99 0.66,-1.98 1,-3 1.8125,-1.75391 1.8125,-1.75391 4,-3.5625 2.94959,-2.3596 2.94959,-2.3596 5,-5.4375 0.66,0 1.32,0 2,0 0.39111,-0.87868 0.39111,-0.87868 0.79013,-1.7751 1.28777,-2.36816 2.66216,-3.92353 4.56773,-5.82327 0.6939,-0.69665 1.3878,-1.3933 2.10272,-2.11106 0.76107,-0.75387 1.52214,-1.50775 2.30626,-2.28447 1.20271,-1.20314 1.20271,-1.20314 2.42972,-2.4306 2.65503,-2.65363 5.31707,-5.3001 7.97922,-7.94659 1.84648,-1.84275 3.69252,-3.68594 5.53813,-5.52956 4.36739,-4.36118 8.73986,-8.71724 13.11417,-13.07147 4.95968,-4.9374 9.91375,-9.8804 14.86732,-14.82393 8.47476,-8.45739 16.95371,-16.91058 25.43743,-25.35899 4.98199,-4.96149 9.95902,-9.92751 14.91328,-14.91672 2.06491,-2.07849 4.13266,-4.15415 6.20047,-6.22975 1.08293,-1.08797 2.16497,-2.17684 3.24609,-3.26661 5.66179,-5.70571 11.34012,-11.26625 17.50733,-16.43188 1.67862,-1.65463 3.34358,-3.32315 5,-5 0.94413,-0.94946 1.88862,-1.89857 2.83341,-2.84738 1.05361,-1.06004 2.10715,-2.12015 3.16064,-3.18031 1.21474,-1.22208 2.42951,-2.44414 3.64428,-3.66619 0.9661,-0.97191 0.9661,-0.97191 1.95171,-1.96346 14.84652,-14.93503 29.70739,-29.8557 44.57649,-44.76825 8.59178,-8.617565 17.178797,-17.239778 25.754854,-25.872994 7.492668,-7.542579 14.99415,-15.07626 22.506246,-22.599491 3.971154,-3.977654 7.937834,-7.959544 11.89395,-11.952158 3.723783,-3.757863 7.459289,-7.503667 11.203892,-11.24078 1.367239,-1.368607 2.730241,-2.741463 4.088497,-4.118986 C -26.018399,8.3212144 -16.658291,1.8970296 0,0 Z"
       fill="#f5378f"
       transform="translate(381.19531,135.75)"
       id="path5" />
    <path
       d="m 0,0 c 0,3 0,3 -1.0876293,4.4623594 -0.5136064,0.5134387 -1.0272129,1.0268774 -1.5563832,1.5558748 -0.5861004,0.5931148 -1.1722009,1.1862296 -1.776062,1.7973176 -0.6514096,0.6437658 -1.3028192,1.2875317 -1.9739685,1.9508056 -1.019306,1.0247816 -1.019306,1.0247816 -2.0592041,2.0702666 -2.2556299,2.263758 -4.5219709,4.516448 -6.7889409,6.768845 -1.565136,1.564618 -3.129756,3.129755 -4.693878,4.695389 -3.2824,3.28231 -6.56992,6.559379 -9.861297,9.832687 -4.227886,4.205189 -8.4446,8.421369 -12.657774,12.641292 -3.230276,3.233609 -6.465505,6.462224 -9.702368,9.689238 -1.557134,1.553273 -3.112907,3.107911 -4.66732,4.663906 -2.169225,2.169594 -4.344804,4.3326 -6.522343,6.493845 -0.647361,0.649839 -1.294722,1.299677 -1.9617,1.969208 C -69.771262,73 -69.771262,73 -72,73 c -0.237641,0.561976 -0.475281,1.123952 -0.720123,1.702957 -1.570755,2.819092 -3.481136,4.760143 -5.757904,7.049729 -0.927914,0.937445 -1.855827,1.874891 -2.811859,2.840744 -1.015021,1.014759 -2.03038,2.029181 -3.046051,3.043289 -1.041532,1.045419 -2.082839,2.091061 -3.123932,3.136917 -2.180555,2.188007 -4.364933,4.372109 -6.55185,6.553757 -2.801777,2.795977 -5.592007,5.603167 -8.379261,8.413607 -2.14634,2.16107 -4.29956,4.31517 -6.45483,6.46732 -1.03178,1.03229 -2.0612,2.06695 -3.08819,3.104 -1.43588,1.44822 -2.88231,2.88595 -4.32918,4.32318 -0.82004,0.82066 -1.64007,1.64133 -2.48496,2.48686 -2.19622,1.83124 -3.45743,2.50501 -6.25186,2.87764 4.04001,-4.84916 8.27249,-9.4095 12.75391,-13.85156 0.935,-0.93289 0.935,-0.93289 1.8889,-1.88462 1.97087,-1.96532 3.94519,-3.92713 5.91969,-5.88882 1.32771,-1.32268 2.65518,-2.6456 3.98242,-3.96875 2.43876,-2.430639 4.878841,-4.859932 7.320559,-7.287598 4.073009,-4.050782 8.13302,-8.114246 12.180633,-12.190414 2.064913,-2.078487 4.132664,-4.154143 6.20047,-6.229752 1.082935,-1.087968 2.164972,-2.176831 3.246094,-3.266601 C -65.845535,64.726173 -60.167207,59.165628 -54,54 c 1.677584,-1.655677 3.343145,-3.323579 5,-5 C -32.666667,32.666667 -16.333333,16.333333 0,0 Z"
       fill="#f54b9a"
       transform="translate(261,239)"
       id="path6" />
    <path
       d="m 0,0 c 0.99,0.33 1.98,0.66 3,1 -6.3108702,6.3803618 -12.6297957,12.752603 -18.959171,19.114608 -2.938689,2.954348 -5.87452,5.911424 -8.804013,8.874894 -2.826897,2.859479 -5.661048,5.71158 -8.500389,8.558702 -1.082299,1.087845 -2.161953,2.178329 -3.238907,3.271466 -1.508218,1.529976 -3.025546,3.050324 -4.545372,4.568758 -0.861597,0.868259 -1.723194,1.736518 -2.6109,2.631088 C -45.903394,49.91828 -47.128156,50.640229 -50,51 c 4.040011,-4.84916 8.272487,-9.409501 12.753906,-13.851563 0.623337,-0.621922 1.246675,-1.243844 1.888901,-1.884613 1.970869,-1.965329 3.945198,-3.927139 5.919693,-5.888824 1.327707,-1.322682 2.655183,-2.645597 3.982422,-3.96875 2.438758,-2.430639 4.878839,-4.859932 7.320557,-7.287598 C -15.418073,15.41736 -12.707562,12.710202 -10,10 -5,5 -5,5 0,0 Z"
       fill="#f55aa2"
       transform="translate(186,313)"
       id="path7" />
    <path
       d="M 0,0 C 0,3 0,3 -1.8222656,5.1830292 -3.1013379,6.4521087 -3.1013379,6.4521087 -4.40625,7.7468262 -5.1085071,8.4497404 -5.1085071,8.4497404 -5.8249512,9.1668549 -7.3762966,10.716108 -8.9380026,12.254462 -10.5,13.792969 c -1.076824,1.071229 -2.152988,2.143122 -3.228516,3.215652 -2.834252,2.822792 -5.677398,5.636459 -8.522461,8.448349 -2.90091,2.870237 -5.793359,5.748973 -8.686523,8.627014 C -36.616732,39.73103 -42.305383,45.368469 -48,51 c 0,-3 0,-3 1.881592,-5.069092 C -45.079617,44.953218 -44.040018,43.976385 -43,43 c 1.509137,-1.50078 3.0136,-3.006266 4.514893,-4.514893 C -25.656738,25.656738 -12.828369,12.828369 0,0 Z"
       fill="#f5509d"
       transform="translate(66,433)"
       id="path8" />
    <path
       d="m 0,0 c 0.99,0.33 1.98,0.66 3,1 0,4.29 0,8.58 0,13 0.66,0 1.32,0 2,0 0,2.64 0,5.28 0,8 0.66,0 1.32,0 2,0 C 6.67,25.96 6.34,29.92 6,34 5.67,34 5.34,34 5,34 4.282485,29.962452 3.5705865,25.923957 2.8637695,21.884521 2.622781,20.511857 2.3802871,19.139456 2.1362305,17.767334 1.7847303,15.789608 1.4391758,13.810828 1.09375,11.832031 0.88427734,10.643274 0.67480469,9.4545166 0.45898438,8.2297363 0.0601398,5.4231859 -0.09322167,2.8269471 0,0 Z"
       fill="#43bedf"
       transform="translate(400,417)"
       id="path9" />
    <path
       d="M 0,0 C -1.809459,2.3366458 -2.7775303,2.9572426 -5.7272949,3.5241699 -7.337616,3.6262878 -7.337616,3.6262878 -8.9804688,3.7304688 -10.143848,3.8110352 -11.307227,3.8916016 -12.505859,3.9746094 -13.720801,4.0448633 -14.935742,4.1151172 -16.1875,4.1875 -17.414043,4.2693555 -18.640586,4.3512109 -19.904297,4.4355469 -22.93562,4.6360624 -25.967189,4.8236848 -29,5 c 2.915786,-1.9438572 4.12653,-2.3621352 7.457031,-2.8515625 0.865606,-0.1289062 1.731211,-0.2578125 2.623047,-0.390625 C -18.018223,1.6314844 -17.116523,1.5051562 -16.1875,1.375 -14.852354,1.1739062 -14.852354,1.1739062 -13.490234,0.96875 -8.9553507,0.30986401 -4.596223,-0.16713538 0,0 Z"
       fill="#4fc3c6"
       transform="translate(564,237)"
       id="path10" />
    <path
       d="M 0,0 C 1.4828524,0.95262034 2.961182,1.912284 4.4375,2.875 5.6730664,3.6755078 5.6730664,3.6755078 6.9335937,4.4921875 9,6 9,6 10,8 4.06,7.01 4.06,7.01 -2,6 -1,1 -1,1 0,0 Z"
       fill="#edc31c"
       transform="translate(509,1017)"
       id="path11" />
    <path
       d="M 0,0 C 2.6352074,2.4050236 4.4030294,5.0185849 6.25,8.0625 6.7914062,8.9403516 7.3328125,9.8182031 7.890625,10.722656 8.2567187,11.47418 8.6228125,12.225703 9,13 8.67,13.66 8.34,14.32 8,15 6.4940389,13.547823 4.995379,12.088071 3.5,10.625 2.6646875,9.8128906 1.829375,9.0007812 0.96875,8.1640625 -1,6 -1,6 -1,4 -0.34,4 0.32,4 1,4 0.67,2.68 0.34,1.36 0,0 Z"
       fill="#f65b76"
       transform="translate(475,986)"
       id="path12" />
    <path
       d="M 0,0 C 0.33,0 0.66,0 1,0 1.33,2.64 1.66,5.28 2,8 2.33,8 2.66,8 3,8 3,13.94 3,19.88 3,26 2.67,26 2.34,26 2,26 0.20637535,17.25608 -0.23737365,8.9146991 0,0 Z"
       fill="#51c3c1"
       transform="translate(383,301)"
       id="path13" />
    <path
       d="m 0,0 c -2.9691504,2.5607431 -4.8567522,3.3864344 -8.765625,3.5117188 -0.8894531,0.035449 -1.778906,0.070898 -2.695313,0.1074218 -0.92039,0.022559 -1.840781,0.045117 -2.789062,0.068359 -1.403789,0.05124 -1.403789,0.05124 -2.835937,0.1035156 C -19.390505,3.8733216 -21.694701,3.9425263 -24,4 -18.865832,-1.1341677 -7.0289923,-0.28115969 0,0 Z"
       fill="#59c4c1"
       transform="translate(455,254)"
       id="path14" />
    <path
       d="m 0,0 c -0.33,0.99 -0.66,1.98 -1,3 -11.52164,1.332574 -11.52164,1.332574 -17,0 0,-0.33 0,-0.66 0,-1 2.249481,-0.3368206 4.499607,-0.66933 6.75,-1 C -9.9970312,0.814375 -8.7440625,0.62875 -7.453125,0.4375 -4,0 -4,0 0,0 Z"
       fill="#2fc2e0"
       transform="translate(660,221)"
       id="path15" />
    <path
       d="M 0,0 C 0.99,0.33 1.98,0.66 3,1 -0.82573388,4.9249604 -4.6199732,8.6817979 -9,12 -9.66,11.67 -10.32,11.34 -11,11 -7.37,7.37 -3.74,3.74 0,0 Z"
       fill="#f664aa"
       transform="translate(186,313)"
       id="path16" />
    <path
       d="m 0,0 c 0.66,0.33 1.32,0.66 2,1 -4,4 -8,8 -12,12 -0.66,-0.33 -1.32,-0.66 -2,-1 1.245204,-1.441656 2.4963792,-2.8781565 3.75,-4.3125 C -7.5539062,6.8869922 -6.8578125,6.0864844 -6.140625,5.2617187 -4.2085466,3.220344 -2.3005687,1.6010715 0,0 Z"
       fill="#3dbedb"
       transform="translate(405,266)"
       id="path17" />
    <path
       d="M 0,0 C 0.33,0 0.66,0 1,0 1.2067494,5.7889842 0.59162079,10.429327 -1,16 -1.33,16 -1.66,16 -2,16 -2.2358396,10.22193 -1.8678305,5.486752 0,0 Z"
       fill="#4093fa"
       transform="translate(547,864)"
       id="path18" />
    <path
       d="M 0,0 C 0.99,0.495 0.99,0.495 2,1 2.33,1.99 2.66,2.98 3,4 2.67,4.66 2.34,5.32 2,6 2.66,6 3.32,6 4,6 3.4265506,8.8672469 3.1385485,9.8614515 1,12 -0.3271261,8.0186217 -0.06915913,4.1495477 0,0 Z"
       fill="#49c0d8"
       transform="translate(452,729)"
       id="path19" />
    <path
       d="M 0,0 C 0,3.9613037 -1.3487712,4.829144 -4,7.6875 -4.7425,8.4957422 -5.485,9.3039844 -6.25,10.136719 -6.8275,10.751602 -7.405,11.366484 -8,12 -8.99,11.67 -9.98,11.34 -11,11 -7.37,7.37 -3.74,3.74 0,0 Z"
       fill="#f766ab"
       transform="translate(115,384)"
       id="path20" />
    <path
       d="M 0,0 C 0.99,0.33 1.98,0.66 3,1 3,6.28 3,11.56 3,17 2.67,17 2.34,17 2,17 1.6615135,15.10508 1.3294309,13.209015 1,11.3125 0.814375,10.256758 0.62875,9.2010156 0.4375,8.1132813 0.04931926,5.3509594 -0.08259976,2.7825796 0,0 Z"
       fill="#55c3c4"
       transform="translate(400,417)"
       id="path21" />
    <path
       d="M 0,0 C 0.99,0.33 1.98,0.66 3,1 0.36,3.64 -2.28,6.28 -5,9 -5.66,8.34 -6.32,7.68 -7,7 -4.69,4.69 -2.38,2.38 0,0 Z"
       fill="#f459a2"
       transform="translate(131,368)"
       id="path22" />
    <path
       d="m 0,0 c 0.33,1.32 0.66,2.64 1,4 -0.66,0 -1.32,0 -2,0 0,1.98 0,3.96 0,6 -0.66,0 -1.32,0 -2,0 -0.33,1.65 -0.66,3.3 -1,5 C -4.9042552,12.493267 -5.0918267,11.283213 -4.2578125,8.7109375 -3.6970703,7.5546484 -3.6970703,7.5546484 -3.125,6.375 -2.7563281,5.5989844 -2.3876563,4.8229687 -2.0078125,4.0234375 -1.3395727,2.6817777 -0.6703127,1.3406254 0,0 Z"
       fill="#5dc3be"
       transform="translate(389,284)"
       id="path23" />
    <path
       d="M 0,0 C 1.7700771,-0.08114106 3.541221,-0.13925505 5.3125,-0.1875 6.2986328,-0.22230469 7.2847656,-0.25710938 8.3007813,-0.29296875 11,0 11,0 12.855469,1.5117187 13.233164,2.0028516 13.610859,2.4939844 14,3 12.228443,2.885706 10.457738,2.7581696 8.6875,2.625 7.7013672,2.5553906 6.7152344,2.4857813 5.6992187,2.4140625 3,2 3,2 0,0 Z"
       fill="#9564e8"
       transform="translate(908,1124)"
       id="path24" />
    <path
       d="m 0,0 c 0.33,0 0.66,0 1,0 0.080757,2.291096 0.1390773,4.5829927 0.1875,6.875 0.034805,1.2761719 0.069609,2.5523438 0.1054687,3.867188 C 1.1962891,11.817266 1.0996094,12.892344 1,14 0.01,14.66 -0.98,15.32 -2,16 -1.34,10.72 -0.68,5.44 0,0 Z"
       fill="#d3c2f7"
       transform="translate(1148,642)"
       id="path25" />
    <path
       d="m 0,0 c 1.2065625,0.0309375 1.2065625,0.0309375 2.4375,0.0625 -1.375,2 -1.375,2 -4,4 -3.3580469,0.357911 -6.6353636,0.2311582 -10,0 0,-0.33 0,-0.66 0,-1 0.565898,-0.1327734 1.131797,-0.2655469 1.7148437,-0.4023437 C -8.7474414,2.3952539 -8.7474414,2.3952539 -7.625,2.125 -6.8941016,1.9509766 -6.1632031,1.7769531 -5.4101562,1.5976562 -2.7932294,0.83968801 -2.9580398,0.07214731 0,0 Z"
       fill="#16bff7"
       transform="translate(566.5625,236.9375)"
       id="path26" />
    <path
       d="M 0,0 C 0.33,0.99 0.66,1.98 1,3 0.0479279,4.005963 -0.91187346,5.0046156 -1.875,6 -2.4086719,6.556875 -2.9423438,7.11375 -3.4921875,7.6875 -5,9 -5,9 -7,9 -5.4449902,5.1831577 -2.9640451,2.8080427 0,0 Z"
       fill="#f55ea6"
       transform="translate(93,406)"
       id="path27" />
    <path
       d="m 0,0 c -2.938286,2.5029843 -5.1790276,3.4693094 -9,4 0,-0.66 0,-1.32 0,-2 5.625,-3.125 5.625,-3.125 9,-2 z"
       fill="#f83f96"
       transform="translate(224,317)"
       id="path28" />
    <path
       d="M 0,0 C 0.66,0.66 1.32,1.32 2,2 1.9671242,4.7286941 1.4360223,7.2966618 1,10 0.67,10 0.34,10 0,10 -0.19412181,8.5216878 -0.38012131,7.0423068 -0.5625,5.5625 -0.66691406,4.7387891 -0.77132813,3.9150781 -0.87890625,3.0664063 -0.91886719,2.3844922 -0.95882813,1.7025781 -1,1 -0.67,0.67 -0.34,0.34 0,0 Z"
       fill="#2abfe7"
       transform="translate(464,793)"
       id="path29" />
    <path
       d="M 0,0 C 1.9836207,2.9170892 1.9876191,4.123809 1.625,7.75 1.41875,8.8225 1.2125,9.895 1,11 0.67,11 0.34,11 0,11 -0.19406478,9.3549278 -0.38007935,7.7089041 -0.5625,6.0625 -0.66691406,5.1459766 -0.77132813,4.2294531 -0.87890625,3.2851563 -0.91886719,2.5310547 -0.95882813,1.7769531 -1,1 -0.67,0.67 -0.34,0.34 0,0 Z"
       fill="#2cc1e4"
       transform="translate(417,513)"
       id="path30" />
  </g>
</svg>
